HIERARCHY
ROOT Hips
{
	OFFSET 0.00000 0.00000 0.00000
	CHANNELS 6 Xposition Yposition Zposition Zrotation Yrotation Xrotation 
	JOINT LHipJoint
	{
		OFFSET 0 0 0
		CHANNELS 3 Zrotation Yrotation Xrotation
		JOINT LeftHip
		{
			OFFSET 1.85742 -1.74412 1.01653
			CHANNELS 3 Zrotation Yrotation Xrotation
			JOINT LeftKnee
			{
				OFFSET 2.54803 -7.00067 0.00000
				CHANNELS 3 Zrotation Yrotation Xrotation
				JOINT LeftAnkle
				{
					OFFSET 2.51202 -6.90173 0.00000
					CHANNELS 3 Zrotation Yrotation Xrotation
					JOINT LeftToe
					{
						OFFSET 0.17547 -0.48209 1.64281
						CHANNELS 3 Zrotation Yrotation Xrotation
						End Site
						{
							OFFSET 0.00000 -0.00000 0.86587
						}
					}
				}
			}
		}
	}
	JOINT RHipJoint
	{
		OFFSET 0 0 0
		CHANNELS 3 Zrotation Yrotation Xrotation
		JOINT RightHip
		{
			OFFSET -1.95533 -1.74413 1.01654
			CHANNELS 3 Zrotation Yrotation Xrotation
			JOINT RightKnee
			{
				OFFSET -2.49465 -6.85400 0.00000
				CHANNELS 3 Zrotation Yrotation Xrotation
				JOINT RightAnkle
				{
					OFFSET -2.54783 -7.00010 0.00000
					CHANNELS 3 Zrotation Yrotation Xrotation
					JOINT RightToe
					{
						OFFSET -0.18513 -0.50864 1.69288
						CHANNELS 3 Zrotation Yrotation Xrotation
						End Site
						{
							OFFSET -0.00000 -0.00000 0.89242
						}
					}
				}
			}
		}
	}
	JOINT lowerback
	{
		OFFSET 0 0 0
		CHANNELS 3 Zrotation Yrotation Xrotation
		JOINT Chest
		{
			OFFSET 0.02173 2.16290 -0.15998
			CHANNELS 3 Zrotation Yrotation Xrotation
			JOINT Chest2
			{
				OFFSET 0.00940 2.17323 -0.00467
				CHANNELS 3 Zrotation Yrotation Xrotation
				JOINT lowerneck
				{
					OFFSET 0 0 0
					CHANNELS 3 Zrotation Yrotation Xrotation
					JOINT Neck
					{
						OFFSET 0.01475 1.85823 0.31113
						CHANNELS 3 Zrotation Yrotation Xrotation
						JOINT Head
						{
							OFFSET 0.01902 1.88783 -0.37187
							CHANNELS 3 Zrotation Yrotation Xrotation
							End Site
							{
								OFFSET 0.00489 1.93211 -0.16169
							}
						}
					}
				}
				JOINT LeftCollar
				{
					OFFSET 0 0 0
					CHANNELS 3 Zrotation Yrotation Xrotation
					JOINT LeftShoulder
					{
						OFFSET 3.34199 1.32384 -0.07862
CHANNELS 3 Zrotation Xrotation Yrotation
						JOINT LeftElbow
						{
OFFSET 0 -5.279500 0.000000
CHANNELS 3 Zrotation Xrotation Yrotation
							JOINT LeftWrist
							{
OFFSET 0 -3.535040 0.000000
CHANNELS 3 Zrotation Xrotation Yrotation
								JOINT lhand
								{
									OFFSET 0 0 0
CHANNELS 3 Zrotation Xrotation Yrotation
									JOINT LFingers
									{
OFFSET 0 -0.667950 0.000000
CHANNELS 3 Zrotation Xrotation Yrotation
										End Site
										{
OFFSET 0 -0.538520 0.000000
										}
									}
								}
								JOINT LThumb
								{
OFFSET 0 0.000000 0.000000
CHANNELS 3 Zrotation Xrotation Yrotation
									End Site
									{
OFFSET 0 -0.546740 0.546740
									}
								}
							}
						}
					}
				}
				JOINT RightCollar
				{
					OFFSET 0 0 0
					CHANNELS 3 Zrotation Yrotation Xrotation
					JOINT RightShoulder
					{
						OFFSET -3.16149 1.45719 -0.50507
CHANNELS 3 Zrotation Xrotation Yrotation
						JOINT RightElbow
						{
OFFSET 0 -5.250350 0.000000
CHANNELS 3 Zrotation Xrotation Yrotation
							JOINT RightWrist
							{
OFFSET 0 -3.588840 0.000000
CHANNELS 3 Zrotation Xrotation Yrotation
								JOINT rhand
								{
									OFFSET 0 0 0
CHANNELS 3 Zrotation Xrotation Yrotation
									JOINT RFingers
									{
OFFSET 0 -0.779240 0.000000
CHANNELS 3 Zrotation Xrotation Yrotation
										End Site
										{
OFFSET 0 -0.628240 0.000000
										}
									}
								}
								JOINT RThumb
								{
OFFSET 0 0.000000 0.000000
CHANNELS 3 Zrotation Xrotation Yrotation
									End Site
									{
OFFSET 0 -0.637830 0.637830
									}
								}
							}
						}
					}
				}
			}
		}
	}
}
MOTION
Frames: 10
Frame Time: 0.008333333333333333
-0.021680 17.843411 -0.585941 -7.710398 67.513510 1.769716 0.000000 0.000000 0.000000 -13.131701 -20.212484 -5.855713 0.944628 6.190223 17.337349 0.011467 14.093168 -20.152181 2.004087 -8.874538 -25.403777 0.000000 0.000000 0.000000 20.703049 12.567856 -1.012130 0.000000 0.000000 0.000000 0.579752 -13.349292 -5.346202 -1.005680 6.380493 -17.892768 0.810472 0.295521 1.885633 0.680261 0.441403 -1.550252 0.225438 0.214145 -2.646607 5.018944 3.168465 -23.530935 -1.164838 3.921618 37.531922 -0.473675 2.381244 18.129851 0.000000 0.000000 0.000000 1.592829 -10.155964 -54.933500 116.772187 -57.110435 82.960446 17.055142 -44.996888 -50.707267 0.000000 0.000000 0.000000 -7.125000 0.000000 0.000000 -55.201001 76.861689 43.533288 0.000000 0.000000 0.000000 -10.187643 -3.599457 68.621070 -119.218530 -56.514593 -85.007909 -17.030376 -33.552905 0.979342 0.000000 0.000000 0.000000 7.125000 0.000000 0.000000 7.582342 30.952170 2.622694
-0.014114 17.845563 -0.580925 -7.665927 67.577271 1.800234 0.000000 0.000000 0.000000 -13.164696 -20.169797 -5.824779 0.941278 6.179383 17.305827 0.017039 14.037710 -20.136607 2.000859 -8.867851 -25.382783 0.000000 0.000000 0.000000 20.678052 12.487408 -0.980460 0.000000 0.000000 0.000000 0.576055 -13.313705 -5.516163 -0.857105 5.896913 -16.487396 0.794247 0.266276 1.852629 0.705109 0.402220 -1.558882 0.261737 0.195229 -2.637324 5.108773 3.283932 -23.447289 -1.255908 4.105230 37.501250 -0.492131 2.454261 18.105615 0.000000 0.000000 0.000000 1.691090 -10.099704 -55.279713 116.372111 -57.201522 82.624326 18.060878 -44.617542 -50.800830 0.000000 0.000000 0.000000 -7.125000 0.000000 0.000000 -54.934068 77.307422 43.731334 0.000000 0.000000 0.000000 -10.249167 -3.493077 68.729698 -118.925571 -56.589473 -84.763471 -17.690192 -34.707626 0.006296 0.000000 0.000000 0.000000 7.125000 0.000000 0.000000 6.987305 29.947622 2.578713
-0.007479 17.846951 -0.575119 -7.785686 67.645281 1.662382 0.000000 0.000000 0.000000 -13.118866 -20.090150 -5.859075 0.950197 6.207688 17.388251 0.035867 13.887411 -20.139258 2.046936 -8.962645 -25.678869 0.000000 0.000000 0.000000 20.726719 12.398322 -0.928992 0.000000 0.000000 0.000000 0.569422 -13.247995 -5.702298 -0.702954 5.358681 -14.934432 0.826209 0.251219 1.824512 0.753756 0.383761 -1.533260 0.294682 0.186050 -2.595319 5.154396 3.367594 -23.473962 -1.317093 4.239968 37.506717 -0.497856 2.504841 18.125662 0.000000 0.000000 0.000000 1.713922 -10.059009 -55.621361 115.930984 -57.300042 82.253274 19.415601 -43.921441 -51.032925 0.000000 0.000000 0.000000 -7.125000 0.000000 0.000000 -55.044516 77.960693 44.450656 0.000000 0.000000 0.000000 -10.336147 -3.385580 68.822017 -118.688997 -56.649203 -84.565870 -18.887097 -36.301925 -1.694813 0.000000 0.000000 0.000000 7.125000 0.000000 0.000000 5.953681 28.167004 2.440528
-0.005467 17.843554 -0.572657 -8.103833 67.684759 1.393999 0.000000 0.000000 0.000000 -12.954000 -20.052328 -6.028112 0.971883 6.276046 17.587515 0.052943 13.745135 -20.134598 2.130538 -9.132562 -26.210951 0.000000 0.000000 0.000000 20.875976 12.372947 -0.950928 0.000000 0.000000 0.000000 0.569751 -13.246005 -5.555768 -0.842601 5.835946 -16.314549 0.947410 0.236719 1.830040 0.829664 0.370535 -1.535825 0.305177 0.178178 -2.600895 5.176636 3.445067 -23.546606 -1.373359 4.373038 37.551947 -0.496402 2.551960 18.179277 0.000000 0.000000 0.000000 1.701362 -9.979805 -55.944103 115.463784 -57.402069 81.859943 20.209336 -43.739346 -50.790989 0.000000 0.000000 0.000000 -7.125000 0.000000 0.000000 -53.509262 78.180119 43.309985 0.000000 0.000000 0.000000 -10.440281 -3.262838 68.953789 -118.448142 -56.709449 -84.364640 -20.213689 -37.909912 -3.642466 0.000000 0.000000 0.000000 7.125000 0.000000 0.000000 4.863917 26.090396 2.227361
-0.010336 17.839666 -0.573156 -8.810674 67.695681 0.867776 0.000000 0.000000 0.000000 -12.560326 -20.068562 -6.336138 0.992150 6.339439 17.772570 0.057187 13.677575 -20.090036 2.182535 -9.236225 -26.537145 0.000000 0.000000 0.000000 21.176345 12.433381 -1.108755 0.000000 0.000000 0.000000 0.571056 -13.250987 -5.266856 -1.086138 6.618723 -18.592403 1.233436 0.239649 1.852264 0.932702 0.388289 -1.598226 0.249739 0.182882 -2.676765 5.232442 3.522603 -23.570152 -1.451012 4.500451 37.554380 -0.513205 2.598537 18.198020 0.000000 0.000000 0.000000 1.716931 -9.850329 -56.279203 114.939847 -57.513784 81.418243 16.932649 -46.718907 -51.687090 0.000000 0.000000 0.000000 -7.125000 0.000000 0.000000 -59.043943 77.200640 47.267244 0.000000 0.000000 0.000000 -10.504027 -3.092057 69.109932 -118.217512 -56.766463 -84.171813 -21.573429 -39.636070 -5.399360 0.000000 0.000000 0.000000 7.125000 0.000000 0.000000 3.815100 24.173660 1.913375
-0.009874 17.838328 -0.573260 -9.051625 67.725395 0.695989 0.000000 0.000000 0.000000 -12.433609 -20.139905 -6.414405 0.997753 6.356822 17.823369 0.051151 13.717558 -20.076964 2.181057 -9.233322 -26.527937 0.000000 0.000000 0.000000 21.273809 12.431586 -1.177548 0.000000 0.000000 0.000000 0.575992 -13.305560 -5.250236 -1.120726 6.724457 -18.901679 1.382078 0.247314 1.879362 0.966231 0.405573 -1.628237 0.199985 0.188995 -2.722218 5.292831 3.594247 -23.542079 -1.518037 4.612166 37.507345 -0.530675 2.641161 18.174608 0.000000 0.000000 0.000000 1.734438 -9.683418 -56.604963 114.252081 -57.656093 80.837609 15.041083 -48.498146 -53.594034 0.000000 0.000000 0.000000 -7.125000 0.000000 0.000000 -68.180339 77.043727 55.404263 0.000000 0.000000 0.000000 -10.542937 -2.916804 69.339399 -117.871999 -56.850692 -83.882643 -23.355840 -41.765756 -7.211184 0.000000 0.000000 0.000000 7.125000 0.000000 0.000000 2.516590 22.129029 1.372188
0.001638 17.838039 -0.571815 -8.297833 67.751531 1.273296 0.000000 0.000000 0.000000 -12.857589 -20.174562 -6.073849 0.976442 6.290416 17.629547 0.043077 13.823559 -20.131767 2.104001 -9.079080 -26.043327 0.000000 0.000000 0.000000 20.972236 12.336381 -1.024906 0.000000 0.000000 0.000000 0.578541 -13.335071 -5.324423 -1.126689 6.741957 -18.953177 1.197005 0.270904 1.929517 0.869494 0.427796 -1.575465 0.203262 0.202387 -2.696369 5.306767 3.618698 -23.519619 -1.514578 4.638346 37.440314 -0.526585 2.653262 18.132599 0.000000 0.000000 0.000000 1.745769 -9.503699 -56.952768 113.273819 -57.850279 80.010176 13.182703 -50.352180 -55.293752 0.000000 0.000000 0.000000 -7.125000 0.000000 0.000000 -75.701809 76.658748 62.073909 0.000000 0.000000 0.000000 -10.577414 -2.753520 69.779958 -117.336965 -56.978550 -83.434356 -25.513668 -44.505412 -9.430406 0.000000 0.000000 0.000000 7.125000 0.000000 0.000000 1.036322 19.546222 0.618471
0.015404 17.836240 -0.569647 -7.236760 67.734979 2.090312 0.000000 0.000000 0.000000 -13.446546 -20.160530 -5.557915 0.934146 6.156544 17.239330 0.017880 14.007201 -20.103325 2.104512 -9.080487 -26.047485 0.000000 0.000000 0.000000 20.550969 12.254351 -0.805793 0.000000 0.000000 0.000000 0.574986 -13.293735 -5.256434 -1.217557 6.998960 -19.712440 0.926154 0.353952 1.994559 0.712451 0.524435 -1.492375 0.189600 0.253773 -2.647591 5.259387 3.564029 -23.575458 -1.434057 4.533534 37.411330 -0.503638 2.615782 18.120438 0.000000 0.000000 0.000000 1.807925 -9.306163 -57.413132 112.250838 -58.043764 79.143238 12.211672 -51.494190 -55.658056 0.000000 0.000000 0.000000 -7.125000 0.000000 0.000000 -77.384644 76.346546 63.337318 0.000000 0.000000 0.000000 -10.595738 -2.538279 69.986486 -116.791649 -57.105924 -82.976800 -27.291931 -46.044108 -10.924145 0.000000 0.000000 0.000000 7.125000 0.000000 0.000000 -0.136778 17.724954 -0.090739
0.029635 17.836015 -0.565680 -6.234097 67.660385 2.862423 0.000000 0.000000 0.000000 -14.004511 -20.188470 -5.057101 0.900414 6.047326 16.921923 -0.010861 14.227418 -20.090327 2.123843 -9.119277 -26.169158 0.000000 0.000000 0.000000 20.160755 12.225019 -0.567106 0.000000 0.000000 0.000000 0.579980 -13.354819 -5.448545 -1.117876 6.716127 -18.877188 0.673279 0.471496 2.071468 0.554696 0.668138 -1.409938 0.162972 0.328089 -2.606490 5.303419 3.486146 -23.703724 -1.514650 4.413646 37.389328 -0.573866 2.560456 18.139529 0.000000 0.000000 0.000000 1.948690 -9.097816 -57.832052 111.240749 -58.224416 78.285319 10.126331 -53.543545 -57.087098 0.000000 0.000000 0.000000 -7.125000 0.000000 0.000000 -83.232601 75.678134 68.350963 0.000000 0.000000 0.000000 -10.578334 -2.274733 69.926249 -116.160485 -57.249012 -82.446369 -28.447021 -46.414920 -12.016511 0.000000 0.000000 0.000000 7.125000 0.000000 0.000000 -0.856672 16.371735 -0.580797
0.032885 17.838999 -0.561031 -6.366335 67.611569 2.770407 0.000000 0.000000 0.000000 -13.922671 -20.093986 -5.022542 0.885274 5.997753 16.777912 -0.014922 14.214955 -20.027045 2.037185 -8.942984 -25.617121 0.000000 0.000000 0.000000 20.226839 12.280553 -0.561772 0.000000 0.000000 0.000000 0.582098 -13.384077 -5.610379 -1.001581 6.368050 -17.856346 0.710655 0.537480 2.102974 0.598230 0.758870 -1.399114 0.182578 0.373202 -2.613069 5.276459 3.430939 -23.750028 -1.627654 4.364972 37.207024 -0.633950 2.514904 18.048976 0.000000 0.000000 0.000000 2.025459 -8.905968 -57.977046 109.940600 -58.441983 77.178691 17.839849 -48.092962 -54.829851 0.000000 0.000000 0.000000 -7.125000 0.000000 0.000000 -73.267990 78.374186 61.613690 0.000000 0.000000 0.000000 -10.638345 -2.122631 69.852808 -115.447060 -57.405697 -81.845861 -28.988911 -46.405751 -12.844990 0.000000 0.000000 0.000000 7.125000 0.000000 0.000000 -1.155859 15.370821 -0.808716
